<svg width="80" height="129" viewBox="0 0 80 129" fill="none" xmlns="http://www.w3.org/2000/svg">
<g clip-path="url(#clip0_42_10)">
<path d="M1.51278 68.2376L26.2251 40.1934L9.69551 128.633L79.7757 8.05032L51.4036 26.1065L49.0097 0.267957L0.707346 1.08735L1.51278 68.2376Z" fill="#FED936" stroke="black"/>
<path d="M3.86268 4.00444L23.0765 3.38612C4.52195 11.7213 6.25492 26.2035 3.62187 47.4077L3.86268 4.00444Z" fill="#FAE690"/>
<path d="M34.812 44.0469L23.0415 58.6612L9.97223 127.728L48.9451 60.8891L47.3699 50.822L38.363 57.2964L37.6708 51.4025L33.3864 56.0001L34.812 44.0469Z" fill="#6E31F5"/>
<path d="M35.4905 36.0765C40.7144 23.0952 40.8474 15.5342 32.422 1.17271L32.427 0.266588L48.9185 0.358085L51.5857 25.9263L79.2263 9.04405L9.60626 128.36L15.9368 97.9487C44.0324 64.3958 70.4029 25.7764 51.2172 27.0117L35.4905 36.0765Z" fill="#A68C18"/>
<path d="M15.302 98.0359C25.4816 87.0152 32.287 78.376 47.981 54.9938L49.0332 61.3427L9.97577 127.094L15.302 98.0359Z" fill="#250076"/>
<path d="M1.51278 68.2376L26.2251 40.1934L9.69551 128.633L79.7757 8.05032L51.4036 26.1065L49.0097 0.267957L0.707346 1.08735L1.51278 68.2376Z" stroke="black"/>
</g>
<defs>
<clipPath id="clip0_42_10">
<rect width="79.11" height="128.58" fill="white"/>
</clipPath>
</defs>
</svg>
